<svg viewBox="0 0 1440 960" width="100%" height="100%" xmlns="http://www.w3.org/2000/svg">
  <defs></defs>
  <g id="Desktop" stroke="none" stroke-width="1" fill="none" fill-rule="evenodd" style="">
    <g id="D_Start">
      <g id="Page-1">
        <rect id="Rectangle-3" fill="#d0d0d0" x="0" y="0" width="1440" height="960" style=""></rect>
        <path id="Fill-9" fill="#3f3636" style="" d="M 293.455 -16.326 L 265.099 944.1 L 1052.606 953.564 L 1082.624 -14.637 L 293.455 -16.326 Z"></path>
        <path d="M 1424.832 231.58 C 1421.366 471.787 1436.059 947.602 1436.059 947.602 L 285.895 -3.33" id="Fill-13" fill="#726b6b" style=""></path>
        <path d="M -1.464 -8.539 C -1.345 -5.728 -17.978 431.61 -17.55 413.877 C 81.562 615.489 221.44 958.63 221.44 958.63 C 524.794 961.028 1440.312 967.745 1442.206 962.226 L 1440.792 -4.586 C 1105.251 656.111 831.181 930.247 831.181 930.247 C 732.293 834.76 442.451 512.245 232.611 280.184 C 113.503 148.463 -1.536 -10.234 -1.464 -8.539 Z" id="Fill-14" fill="#fffcfc" style=""/>
      </g>
    </g>
  </g>
</svg>