<svg width="48" height="48" viewBox="0 0 48 48" fill="none" xmlns="http://www.w3.org/2000/svg">
<path d="M44.727 20.7705C44.613 20.04 43.9845 19.5 43.245 19.5H24C23.1705 19.5 22.5 20.1705 22.5 21V28.5C22.5 29.3295 23.1705 30 24 30H32.616C30.6825 32.79 27.4995 34.5 24 34.5C18.2115 34.5 13.5 29.7885 13.5 24C13.5 18.2115 18.2115 13.5 24 13.5C26.5365 13.5 28.992 14.427 30.912 16.1115C31.506 16.632 32.403 16.6035 32.961 16.044L38.265 10.7415C38.553 10.4535 38.712 10.059 38.7045 9.6495C38.6955 9.243 38.5215 8.8545 38.2215 8.577C34.323 4.9815 29.2725 3 24 3C22.071 3 20.1645 3.261 18.3345 3.774C17.5365 3.9975 17.07 4.8255 17.295 5.622C17.5185 6.4155 18.3435 6.873 19.125 6.663C19.125 6.6855 19.131 6.7125 19.131 6.735C20.211 6.669 21.111 7.068 21.5475 8.3055C21.8685 9.4245 21.2805 10.59 20.2245 11.0145C20.1705 11.037 20.1195 11.0655 20.0655 11.088C15.2895 12.546 11.64 16.5885 10.731 21.5775C8.0505 31.4745 16.5105 42.8445 27.4905 41.646C27.4725 41.652 27.456 41.655 27.438 41.661C26.3235 41.8785 25.176 42 24 42C14.0745 42 6 33.927 6 24C6 17.6175 9.2715 11.844 14.751 8.5545C15.462 8.1285 15.6915 7.2075 15.2655 6.4965C14.8395 5.7855 13.917 5.5545 13.2075 5.9835C6.9105 9.762 3 16.6665 3 24C3 35.58 12.42 45 24 45C35.58 45 45 35.58 45 24C45 23.007 44.91 21.9495 44.727 20.7705Z" fill="black"/>
</svg>
